<?xml version="1.0" encoding="UTF-8"?>
<svg width="1878px" height="1397px" viewBox="0 0 1878 1397" version="1.1" xmlns="http://www.w3.org/2000/svg" xmlns:xlink="http://www.w3.org/1999/xlink">
    <title>logo</title>
    <g id="Page-1" stroke="none" stroke-width="1" fill="none" fill-rule="evenodd">
        <g id="logo" fill-rule="nonzero">
            <g id="Group" transform="translate(1124.810000, 0.000000)" fill="#4A86C2">
                <path d="M63.08,142.38 C68.23,150.85 72.12,159.87 74.72,169.41 C83.95,203.28 76.55,243.3 53.33,285.12 C39.93,309.25 21.84,332.62 -2.27373675e-13,354.2 L531.57,358.43 L752.99,5.68434189e-14 L63.08,142.38 L63.08,142.38 Z M515.48,329.3 L62.1,325.69 C68.17,317 73.71,308.16 78.69,299.2 C105.24,251.38 113.7,204.58 103.21,163.71 L692.95,42.01 L515.48,329.3 Z" id="Shape"></path>
                <path d="M656.93,67.21 L505.82,311.82 L93.4,308.53 C93.57,308.24 93.74,307.94 93.9,307.65 C118.93,262.57 129.02,217.93 123.55,177.28 L656.93,67.21 L656.93,67.21 Z" id="Path"></path>
            </g>
            <g id="Group" transform="translate(0.000000, 427.370000)" fill="#4A86C2">
                <path d="M978.5,195.49 C970.66,195.49 962.75,195.68 954.83,196.07 L1010.18,7.82 C938.86,41.36 868.07,55.23 813.16,55.23 C811.48,55.23 809.81,55.21 808.17,55.19 C749.47,54.27 685.83,39.14 647.69,12.34 C642.13,8.43 636.99,4.31 632.29,-1.13686838e-13 L493.98,376.78 C761.35,389.88 909.84,441.44 898.26,502.59 C890.09,545.8 819.4,590.72 696.61,590.72 C607.94,590.72 492.1,567.3 353.03,502.9 L0,810.94 C168.62,884.3 459.23,968.85 680.43,969.01 L681.2,969.01 C886.96,969.01 1140.24,910.44 1271.09,674.82 C1428.97,390.55 1228.92,195.48 978.5,195.49 L978.5,195.49 Z M1245.74,660.74 C1216.3,713.73 1178.66,759.95 1133.85,798.11 C1093.25,832.67 1045.88,861.41 993.04,883.51 C945.68,903.33 893.17,918.15 836.98,927.57 C787.76,935.82 735.34,940.01 681.2,940.01 L680.45,940.01 C582.09,939.94 460.05,922.4 327.53,889.29 C233.03,865.68 135.95,834.62 54.25,802.09 L358.03,537.02 C479.72,591.17 596.45,619.73 696.61,619.73 C757.77,619.73 811.9,609.07 853.15,588.92 C894.57,568.68 920.71,539.94 926.76,507.98 C929.3,494.55 928.8,474.06 911.97,452.71 C857.43,383.5 666.59,358.84 534.68,350.07 L646.41,45.7 C687.62,68.77 747.45,83.25 807.71,84.19 C809.51,84.22 811.34,84.23 813.16,84.23 C861.36,84.23 913.89,74.79 965.44,57.17 L927,187.89 L915.5,227.02 L956.24,225.04 C963.64,224.68 971.13,224.5 978.53,224.5 C1041.19,224.5 1101.12,237.56 1151.84,262.27 C1202.18,286.79 1241.99,322.19 1266.97,364.64 C1289.47,402.89 1299.91,446.15 1297.97,493.25 C1295.81,545.86 1278.24,602.21 1245.74,660.74 L1245.74,660.74 Z" id="Shape"></path>
                <path d="M1280.59,492.53 C1278.54,542.41 1261.7,596.16 1230.52,652.29 C1202.11,703.45 1165.78,748.06 1122.57,784.86 C1083.34,818.26 1037.5,846.05 986.32,867.46 C940.2,886.76 888.98,901.21 834.1,910.41 C785.83,918.5 734.38,922.6 681.2,922.6 L680.47,922.6 C583.49,922.53 462.91,905.18 331.75,872.4 C248.06,851.49 162.38,824.72 87.37,796.29 L361.15,557.4 C481.4,609.63 596.84,637.13 696.61,637.13 C850.95,637.13 932,573.89 943.86,511.21 C947.07,494.24 946.52,468.43 925.64,441.94 C900.04,409.45 849.48,384.36 771.05,365.21 C712.8,350.99 641.67,340.64 559,334.33 L655.99,70.09 C697.98,89.29 751.85,100.72 807.45,101.59 C809.33,101.62 811.25,101.63 813.15,101.63 C853.42,101.63 896.51,95.32 939.6,83.37 L910.31,182.98 L891.9,245.59 L957.08,242.42 C964.2,242.08 971.41,241.9 978.53,241.9 C1038.56,241.9 1095.86,254.35 1144.22,277.92 C1191.47,300.94 1228.73,333.98 1251.97,373.47 C1272.75,408.78 1282.38,448.84 1280.59,492.53 L1280.59,492.53 Z" id="Path"></path>
            </g>
            <g id="Group" transform="translate(670.563668, 127.080000)" fill="#FEC601">
                <path d="M262.346332,0 L262.186332,0 C191.766332,0 60.6463315,31.44 13.7663315,115.85 C-41.1036685,214.64 80.1963315,260.56 164.046332,260.62 L164.206332,260.62 C224.166332,260.62 328.156332,237.83 386.656332,178.94 C387.196332,178.4 387.726332,177.86 388.256332,177.31 C389.176332,176.35 390.096332,175.39 390.996332,174.42 C391.896332,173.44 392.776332,172.46 393.656332,171.47 L393.656332,171.47 C393.656332,171.47 393.666332,171.46 393.666332,171.46 C394.546332,170.46 395.406332,169.46 396.256332,168.45 C397.106332,167.44 397.936332,166.41 398.766332,165.38 C399.236332,164.79 399.706332,164.2 400.166332,163.61 C401.086332,162.41 401.996332,161.21 402.886332,159.99 C406.436332,155.13 409.696332,150.06 412.626332,144.78 C467.496332,45.98 346.206332,0.06 262.346332,0 L262.346332,0 Z M387.276332,130.69 C365.266332,170.32 320.466332,194.23 286.756332,207.31 C240.576332,225.23 193.176332,231.62 164.206332,231.62 L164.066332,231.62 C137.796332,231.6 109.066332,226.51 85.2563315,217.65 C60.5563315,208.47 42.4463315,195.75 34.2763315,181.85 C30.5063315,175.44 28.7863315,168.73 29.0263315,161.34 C29.3263315,152.02 32.7163315,141.46 39.1163315,129.93 C61.1263315,90.3 105.926332,66.39 139.636332,53.31 C185.816332,35.39 233.216332,29.01 262.186332,29.01 L262.326332,29.01 C288.606332,29.03 317.326332,34.12 341.146332,42.97 C365.836332,52.16 383.946332,64.87 392.116332,78.78 C395.886332,85.19 397.606332,91.9 397.366332,99.29 C397.076332,108.6 393.676332,119.17 387.276332,130.69 Z" id="Shape"></path>
                <path d="M372.056332,122.25 C352.576332,157.33 311.496332,179.05 280.456332,191.09 C236.516332,208.14 191.596332,214.21 164.206332,214.21 L164.076332,214.21 C114.956332,214.18 62.3863315,195.32 49.2763315,173.03 C47.2763315,169.63 41.9863315,160.62 54.3363315,138.38 C73.8163315,103.3 114.896332,81.58 145.936332,69.54 C189.876332,52.49 234.796332,46.41 262.186332,46.41 L262.316332,46.41 C311.436332,46.45 364.006332,65.31 377.116332,87.6 C379.116332,90.99 384.416332,100 372.056332,122.25 Z" id="Path"></path>
            </g>
        </g>
    </g>
</svg>